<svg version="1.2" xmlns="http://www.w3.org/2000/svg" viewBox="0 0 1920 616" width="1920" height="616">
	<title>ZapCards-logo</title>
	<style>
		.s0 { fill: #0fa3b1 } 
		.s1 { fill: #f7a072 } 
	</style>
	<path id="ZapCards" class="s0" d="m160.1 587.2c-6.9 1.5-4.2-123.9-10.4-124.1-23.8-0.6-96.1 2.4-123.9 2.4q-2.7 0-5.4-0.5-2.7-0.6-4.9-2-2.2-1.5-3.8-4-1.3-2.7-1.3-6.9 0-0.5 0.2-0.9 0.2-0.5 0.2-0.9l116.4-204.2q0-0.6-4.9-1.1-4.7-0.7-12.3-0.9-7.4-0.4-16.3-0.6-8.9-0.5-17.2-0.5-8.1-0.2-14.5-0.2-6.3-0.2-8.5-0.2-12.1 0-22.6 0.4-10.5 0.2-21.9 0.2-2.4 0-4.2-1.5-1.8-1.8-1.8-4.1 0.2-0.2 0.2-0.4 0-0.7 0.2-1.3c0 0 73.8-212.5 80.3-212.9 7.4-0.5 17.9 136.1 25.1 136.3 15.7 0.4 136.1-1.6 152.2-1.6v9.1l-108.8 203.3q0 0.5-0.2 0.7 0 0 0 0.4 0 2.5 2.2 2.9 2.3 0.3 4 0.3h44.3q13.4 0 25.9-1.6 12.5-1.8 25.9-1.8 2.7 0 4.9 1.8 2.2 1.6 2.2 4 0-0.2-0.4 2c0 0-91.1 206.3-100.9 208.4zm140-331.1m-140 331.1c-6.9 1.5-4.2-123.9-10.4-124.1-23.8-0.6-96.1 2.4-123.9 2.4q-2.7 0-5.4-0.5-2.7-0.6-4.9-2-2.2-1.5-3.8-4-1.3-2.7-1.3-6.9 0-0.5 0.2-0.9 0.2-0.5 0.2-0.9l116.4-204.2q0-0.6-4.9-1.1-4.7-0.7-12.3-0.9-7.4-0.4-16.3-0.6-8.9-0.5-17.2-0.5-8.1-0.2-14.5-0.2-6.3-0.2-8.5-0.2-12.1 0-22.6 0.4-10.5 0.2-21.9 0.2-2.4 0-4.2-1.5-1.8-1.8-1.8-4.1 0.2-0.2 0.2-0.4 0-0.7 0.2-1.3c0 0 73.8-212.5 80.3-212.9 7.4-0.5 17.9 136.1 25.1 136.3 15.7 0.4 136.1-1.6 152.2-1.6v9.1l-108.8 203.3q0 0.5-0.2 0.7 0 0 0 0.4 0 2.5 2.2 2.9 2.3 0.3 4 0.3h44.3q13.4 0 25.9-1.6 12.5-1.8 25.9-1.8 2.7 0 4.9 1.8 2.2 1.6 2.2 4 0-0.2-0.4 2c0 0-91.1 206.3-100.9 208.4zm0 0c-6.9 1.5-4.2-123.9-10.4-124.1-23.8-0.6-96.1 2.4-123.9 2.4q-2.7 0-5.4-0.5-2.7-0.6-4.9-2-2.2-1.5-3.8-4-1.3-2.7-1.3-6.9 0-0.5 0.2-0.9 0.2-0.5 0.2-0.9l116.4-204.2q0-0.6-4.9-1.1-4.7-0.7-12.3-0.9-7.4-0.4-16.3-0.6-8.9-0.5-17.2-0.5-8.1-0.2-14.5-0.2-6.3-0.2-8.5-0.2-12.1 0-22.6 0.4-10.5 0.2-21.9 0.2-2.4 0-4.2-1.5-1.8-1.8-1.8-4.1 0.2-0.2 0.2-0.4 0-0.7 0.2-1.3c0 0 73.8-212.5 80.3-212.9 7.4-0.5 17.9 136.1 25.1 136.3 15.7 0.4 136.1-1.6 152.2-1.6v9.1l-108.8 203.3q0 0.5-0.2 0.7 0 0 0 0.4 0 2.5 2.2 2.9 2.3 0.3 4 0.3h44.3q13.4 0 25.9-1.6 12.5-1.8 25.9-1.8 2.7 0 4.9 1.8 2.2 1.6 2.2 4 0-0.2-0.4 2c0 0-91.1 206.3-100.9 208.4z"/>
	<path id="a" class="s0" aria-label="a"  d="m520.1 206.5l-23.2 210.2q-0.3 0.9-0.3 1.8 0 0.7 0 1.3 0 5.7 1.8 9.5 1.8 3.6 3.9 6.1 2.2 2.2 4 3.8 1.8 1.4 1.8 2.5 0 3.2-6.7 5.9l-60.7 25.9q-0.2 0.2-1.6 0.2-1.8 0-3.6-3.1-1.8-3.2-3.6-7.9-1.6-5-3.2-10.4-1.3-5.6-2.4-10.4-14.2 16.5-30.7 24.2-16.5 7.6-32.7 7.6-18.9 0-37-8.3-18-8.4-32-23.7-14-15.6-22.6-37.4-8.3-21.9-8.3-49.2 0-32.2 9.2-58.8 9.5-26.7 25.5-45.8 16-19.2 37.2-29.6 21.5-10.6 45.4-10.6 16.9 0 32 7 15.1 6.8 28.6 17.6 1.4-6.8 1.6-10.8 0.2-4.1 0.9-6.3 0.9-2.3 3.2-3 2.2-0.9 7.4-1.3 16.2-2.3 32.3-4.1 16.2-2 33.8-2.9zm-100.1 191.9l9.4-66.7q2.3-12.9 3-24.2 0.9-11.5 1.3-20.9-3.6-2.8-7.9-5.7-4-2.9-9-5.4-4.7-2.7-10.1-4.3-5.2-1.6-11.1-1.6-12.2 0-20.5 7.9-8.1 7.9-13.3 19.4-5 11.5-7.2 24.4-2.1 12.8-2.1 22.8 0 35.6 9.3 52.3 9.4 16.4 26.1 16.4 6.8 0 15.1-3.8 8.4-3.8 17-10.6z"/>
	<path id="p" class="s0" aria-label="p"  d="m618.6 298l-0.7 3.4q-1.3 21.7-2.4 35.2-0.9 13.6-1.6 22.2-0.7 8.3-1.2 13.3-0.4 4.7-0.6 9 5.2 13.6 15.3 22.1 10.2 8.4 24.4 8.4 12.4 0 21.7-7.7 9.5-7.9 15.6-20.3 6.3-12.4 9.4-27.8 3.2-15.3 3.2-30.4 0-12.5-2.3-23.1-2-10.6-6.3-18.3-4.3-7.9-10.8-12.2-6.3-4.5-15.1-4.5-7.3 0-14.5 3-7 2.7-13.5 7.2-6.6 4.3-12 9.9-5.2 5.4-8.6 10.6zm3.9-62.7q18.9-12.9 39.7-20.6 20.8-7.6 43.3-7.6 21.3 0 36.6 8.8 15.6 8.5 25.7 23.4 10.2 14.7 14.9 33.9 5 19.2 5 40.2 0 18.3-3.6 37-3.6 18.7-10.6 36.4-7 17.3-17.4 32.7-10.4 15.3-23.9 26.9-13.3 11.2-29.8 17.8-16.5 6.5-35.7 6.5-16.9 0-32.5-6.7-15.4-6.8-28.9-17.6 0 1.1-0.7 8.3-0.4 7-1.3 17.2-0.9 10.1-2.1 21.9-1.1 11.5-2 21.6-0.9 10.2-1.6 17.4-0.4 7-0.4 8.2 0 1.8 0 3.1 0.2 1.1 0.2 2.3 0 1.8-1.8 3.1-1.6 1.2-7.5 2.7l-59.3 15.2q-2.5 0.6-6.6 2.2-4 1.4-7.9 1.4-3.1 0-5.6-1.6-2.3-1.6-2.3-5.9l27.6-330.5q0.6-7.4 1.5-10.1 1.2-3 5.2-3.9 20.6-4 42.2-8.1 21.7-4.3 42.3-10.8 1.8 0 2 0.6 0.4 0.5 0.4 1.6 0 0.5-0.2 1.4 0 0.9-0.7 4-0.4 3.2-1.5 9.7-0.9 6.4-2.7 17.9z"/>
	<path id="C" class="s1" aria-label="C"  d="m794 307.8q0-24.8 5.9-47.5 6.1-23 17.1-42.8 11-19.8 26.6-36.1 15.7-16.2 35.1-27.7 19.4-11.7 41.9-18 22.7-6.3 47.7-6.3 19.8 0 34.7 2.7 15.1 2.5 26.1 6.6 11.3 3.8 18.7 8.5 7.7 4.7 12.6 9-0.2 0-0.2 1.6 0 3.4 0.4 12.4 0.7 9 1.4 20 0.9 11.1 1.3 22.5 0.7 11.3 0.7 19.6 0 1.4-0.9 3.2-0.9 1.6-4.5 1.6-2 0-4.9-0.7-4.8-1.4-12-6.1-7.2-4.9-16.9-10.1-9.4-5.4-21.4-9.5-11.7-4.3-25.6-4.3-18.5 0-33.6 7.5-15.1 7.2-25.6 20-10.6 12.8-16.5 30.6-5.8 17.6-5.8 38.5 0 18.5 4 35.4 4.1 16.7 12.2 29.3 8.3 12.6 20.5 20.2 12.4 7.5 28.6 7.5 12.8 0 22.7-0.9 9.9-0.9 18.5-3 8.5-2 16.6-5.4 8.4-3.3 17.8-8.5 0.5-0.2 2.3-0.2 1.6 0 2 1.3 0.7 1.1 0.7 5v27q0 7.4-0.2 14.6 0 7-0.3 12.6 0 5.7-0.2 9.3 0 3.3-0.2 3.3-10.4 6.6-22.3 10.9-11.7 4-24.3 6.5-12.4 2.2-25 3.1-12.6 0.7-24.3 0.7-31.8 0-59.5-11.9-27.7-12.2-48.2-33.8-20.3-21.6-32-51.8-11.7-30.2-11.7-66.4z"/>
	<path id="a" class="s1" aria-label="a"  d="m1309.6 201.8l-22.7 211.8q-0.2 0.9-0.2 1.9 0 0.6 0 1.3 0 5.7 1.9 9.6 1.8 3.6 3.8 6.1 2.3 2.2 4.2 3.8 1.8 1.4 1.8 2.5 0 3.2-6.8 6l-61 26.3q-0.3 0.2-1.6 0.2-1.9 0-3.7-3.1-1.8-3.2-3.6-8-1.7-5-3.3-10.4-1.4-5.7-2.5-10.5-14.3 16.7-30.8 24.5-16.6 7.8-32.9 7.8-19.1 0.1-37.3-8.3-18.2-8.3-32.4-23.7-14.1-15.6-22.9-37.6-8.4-22-8.5-49.5-0.2-32.5 9.1-59.4 9.4-26.8 25.5-46.2 16-19.4 37.4-29.9 21.5-10.8 45.6-10.9 17 0 32.3 7 15.2 6.7 28.9 17.6 1.3-6.8 1.6-10.9 0.2-4.1 0.8-6.4 0.9-2.3 3.2-3 2.3-0.9 7.5-1.3 16.4-2.4 32.5-4.3 16.3-2.1 34.1-3zm-100.2 193.7l9.3-67.3q2.2-12.9 2.8-24.3 0.9-11.6 1.3-21.1-3.6-2.8-8-5.7-4.1-2.9-9.1-5.4-4.7-2.7-10.2-4.3-5.2-1.6-11.1-1.5-12.3 0-20.7 8-8.1 8-13.3 19.6-5 11.6-7.2 24.5-2 13-2 23 0.2 35.9 9.5 52.7 9.6 16.5 26.5 16.5 6.8-0.1 15.2-3.9 8.4-3.9 17-10.8z"/>
	<path id="r" class="s1" aria-label="r"  d="m1511.5 208.7l-13.7 68.7q-4.7-0.4-10.4-0.9-5.8-0.6-12.2-0.6-9.8 0-20 1.7-10 1.6-18.6 6.5-8.7 4.9-14.9 13.5-6.2 8.4-8 22-1.6 16.4-2.7 27-0.8 10.5-1.3 17.3-0.4 6.7-0.9 10.9-0.2 4-0.4 7.6 0 0.8-0.5 4.8-0.2 4-0.9 9.4-0.6 5.3-1.3 11.5-0.4 6.2-1.1 11.5-0.7 5.3-1.1 9.3-0.2 4-0.2 4.9 0 1.8 0 3.1 0.2 1.1 0.2 2.2 0 1.8-1.8 3.1-1.5 1.2-7.3 2.7l-58.8 21.1q-2.4 0.9-6.4 2.2-4 1.3-7.8 1.3-3.1 0-5.5-1.5-2.2-1.6-2.2-5.3l19-219.9q0.7-7.3 1.6-10 1.1-2.8 5.1-3.7 20.2-4 41.7-8 21.5-4.2 41.7-10.7 1.8 0 2 0.7 0.4 0.4 0.4 1.5 0 0.5-0.2 1.4 0 0.9-0.7 4-0.4 3.1-1.5 9.5-0.9 6.2-2.7 17.5 10.2-7.9 22.4-14.6 12.5-6.7 24.9-11.3 12.4-4.9 23.9-7.6 11.6-2.8 20.2-2.8z"/>
	<path id="d" class="s1" aria-label="d"  d="m1651.1 383.2l4.7-50.6q0.6-7.2 1.3-14.9 0.9-7.8 2-16.3-5.1-13.3-14.4-21.5-9.4-8.5-23.4-8.5-13.7 0-23.3 8-9.6 7.8-15.3 19.4-5.8 11.5-8.5 24.4-2.4 12.7-2.4 22.5 0 12 1.3 23.7 1.6 11.8 4.7 21.4 3.3 9.5 8.6 15.5 5.4 5.8 13.4 5.8 19.5-0.7 31.8-8.9 12.2-8.2 19.5-20zm110.9-259.5l-28.7 312.9q0 0.4-0.2 1.1 0 0.4 0 0.9 0 1.1 0 1.7 0.2 0.7 0.2 1.4 0 2-1.5 3.3-1.4 1.1-7.4 2.7l-59.5 19.3q-2.5 0.9-6.5 2.2-4 1.4-7.7 1.4-3.1 0-5.6-1.6-2.2-1.6-2.2-5.8 0-4 0-6.4 0.2-2.5 0.2-4.5 0.2-2.2 0.5-4.6 0.4-2.5 0.8-6.5-16.6 13.4-34.4 21.4-17.6 8-37.1 8-21.3 0-38-10-16.5-10.3-27.8-27.2-11.3-17.1-17.3-38.8-5.8-22-5.8-45.8 0-30.9 10-56.2 10.2-25.6 27.6-43.6 17.3-18.2 40.4-28 23.1-10 49.1-10 14 0 26.7 7.3 12.9 7.4 24.2 18.9 0.7-10.9 1.6-23.5 0.8-12.9 1.7-26 0.9-13.4 1.8-26.2 0.9-12.9 1.6-23.6 0-2 1.3-3.1 1.6-1.3 7.6-2.9l62.4-14.9q2.4-0.4 6.4-2 4-1.5 7.8-1.5 2.9 0 5.4 1.3 2.6 1.3 2.6 5.1 0 0.4-0.2 2 0 1.3 0 1.8z"/>
	<path id="s" class="s1" aria-label="s"  d="m1762 455.3l-3-61.6q0-0.2-0.2-0.2 0-0.3 0-0.5 0-2.9 3.2-2.9 2 0 3.6 1.6 9 8.5 20.5 14 11.8 5.4 25.3 5.4 3.6 0 8.4-0.7 4.7-0.9 9-2.7 4.3-1.8 7-4.8 2.9-3.1 2.9-7.6 0-5-2.4-9.1-2.5-4.3-6.6-7-2.3-1.5-7.9-5.4-5.6-4-12.2-8.6-6.3-4.5-12.2-8.5-5.6-4.1-7.9-5.9-10.1-7.7-16.2-15.6-5.9-7.9-9.1-16.2-3.1-8.6-4-17.9-0.9-9.2-0.9-19.6 0-15.8 8.3-29.8 8.4-14 21.9-24.6 13.8-10.7 31.2-16.7 17.4-6.4 35.4-6.4 14.9 0 29.4 4.5 14.4 4.6 26.8 15.4 1.2 14.2 1.6 28 0.5 13.8 1.4 28.9 0 2.9-1.4 4.1-1.3 0.9-3.1 0.9-1.6 0-2.7-1.2-5.2-4.9-10.7-9.7-5.4-4.9-11.5-8.6-5.8-3.8-12.6-6.1-6.8-2.4-14.5-2.4-4.7 0-9.5 0.9-4.7 0.6-8.5 2.9-3.9 2-6.4 5.6-2.2 3.7-2.2 9.3 0 6.6 1.6 11.3 1.5 4.7 7.4 9.3l42 28.4q11.5 7.9 18.5 15.6 7.3 7.4 11.3 14.9 4.1 7.4 5.4 14.9 1.6 7.2 1.6 14.4 0 20.4-9.5 35.9-9.2 15.4-24.1 25.8-14.9 10.1-33.9 15.5-18.7 5.2-37.7 5.2-14.4 0-28-2.9-13.3-3.2-24.8-9.5z"/>
</svg>